<svg width="142" height="39" viewBox="0 0 142 39" fill="none" xmlns="http://www.w3.org/2000/svg">
<g clip-path="url(#clip0_200_15679)">
<path d="M35.5114 11.7333H26.4338V2.51917C26.4338 1.13106 25.3098 0 23.9177 0H13.9843C12.5979 0 11.4682 1.12534 11.4682 2.51917V7.47182H15.3423V3.87872H22.5541V22.5697H19.3704V26.4484H26.4281V15.612H34.1477V22.5697H30.2851V26.4484H35.5057C36.8921 26.4484 38.0218 25.3231 38.0218 23.9292V14.2524C38.0218 12.8643 36.8978 11.7333 35.5114 11.7333Z" fill="#247CFF"/>
<path d="M22.5597 34.143H15.3479V15.612H18.5887V11.7333H11.4738V22.564H3.87406V15.612H7.67396V11.7333H2.51614C1.12399 11.7333 0 12.8643 0 14.2524V23.9293C0 25.3174 1.12399 26.4484 2.51614 26.4484H11.4738V35.5083C11.4738 36.8964 12.5978 38.0275 13.99 38.0275H23.9233C25.3098 38.0275 26.4395 36.9021 26.4395 35.5083V30.2986H22.5654V34.143H22.5597Z" fill="#247CFF"/>
</g>
<path d="M52.2066 10.5827C54.0654 10.5827 55.6961 10.946 57.0987 11.6726C58.5182 12.3993 59.6082 13.4385 60.3686 14.7904C61.1459 16.1254 61.5346 17.6801 61.5346 19.4544C61.5346 21.2288 61.1459 22.7834 60.3686 24.1184C59.6082 25.4365 58.5182 26.4589 57.0987 27.1855C55.6961 27.9121 54.0654 28.2755 52.2066 28.2755H46.0217V10.5827H52.2066ZM52.0799 25.2591C53.9387 25.2591 55.3751 24.7521 56.389 23.7382C57.4029 22.7243 57.9099 21.2964 57.9099 19.4544C57.9099 17.6125 57.4029 16.1761 56.389 15.1453C55.3751 14.0976 53.9387 13.5737 52.0799 13.5737H49.5704V25.2591H52.0799Z" fill="#242424"/>
<path d="M70.4265 28.5036C69.0747 28.5036 67.858 28.2079 66.7764 27.6164C65.6949 27.0081 64.8416 26.1547 64.2163 25.0563C63.608 23.9579 63.3038 22.6905 63.3038 21.2541C63.3038 19.8177 63.6164 18.5503 64.2417 17.4519C64.8838 16.3535 65.7541 15.5086 66.8525 14.9172C67.9509 14.3088 69.176 14.0046 70.5279 14.0046C71.8798 14.0046 73.105 14.3088 74.2034 14.9172C75.3018 15.5086 76.1636 16.3535 76.7888 17.4519C77.431 18.5503 77.7521 19.8177 77.7521 21.2541C77.7521 22.6905 77.4225 23.9579 76.7635 25.0563C76.1213 26.1547 75.2426 27.0081 74.1273 27.6164C73.0289 28.2079 71.7953 28.5036 70.4265 28.5036ZM70.4265 25.4112C71.0687 25.4112 71.6686 25.2591 72.2262 24.9549C72.8008 24.6338 73.257 24.1607 73.595 23.5354C73.933 22.9102 74.102 22.1497 74.102 21.2541C74.102 19.9191 73.7471 18.8968 73.0374 18.187C72.3445 17.4604 71.4911 17.0971 70.4772 17.0971C69.4633 17.0971 68.6099 17.4604 67.9171 18.187C67.2412 18.8968 66.9032 19.9191 66.9032 21.2541C66.9032 22.5891 67.2327 23.6199 67.8918 24.3465C68.5677 25.0563 69.4126 25.4112 70.4265 25.4112Z" fill="#242424"/>
<path d="M79.4426 21.2541C79.4426 19.8008 79.7384 18.5334 80.3298 17.4519C80.9213 16.3535 81.7408 15.5086 82.7886 14.9172C83.8363 14.3088 85.0361 14.0046 86.3879 14.0046C88.1285 14.0046 89.5649 14.444 90.6971 15.3227C91.8462 16.1845 92.6151 17.4012 93.0037 18.9728H89.1762C88.9734 18.3645 88.627 17.8913 88.1369 17.5533C87.6638 17.1985 87.0723 17.021 86.3626 17.021C85.3487 17.021 84.546 17.3928 83.9546 18.1363C83.3631 18.863 83.0674 19.9022 83.0674 21.2541C83.0674 22.5891 83.3631 23.6284 83.9546 24.3719C84.546 25.0985 85.3487 25.4619 86.3626 25.4619C87.799 25.4619 88.7368 24.8197 89.1762 23.5354H93.0037C92.6151 25.0563 91.8462 26.2645 90.6971 27.1602C89.548 28.0558 88.1116 28.5036 86.3879 28.5036C85.0361 28.5036 83.8363 28.2079 82.7886 27.6164C81.7408 27.0081 80.9213 26.1631 80.3298 25.0816C79.7384 23.9832 79.4426 22.7074 79.4426 21.2541Z" fill="#242424"/>
<path d="M94.6909 21.2034C94.6909 19.7839 94.9698 18.525 95.5274 17.4266C96.102 16.3282 96.8793 15.4833 97.8594 14.8918C98.8395 14.3004 99.9295 14.0046 101.129 14.0046C102.042 14.0046 102.912 14.2074 103.74 14.613C104.568 15.0016 105.227 15.5255 105.717 16.1845V9.51807H109.317V28.2755H105.717V26.1969C105.278 26.8898 104.661 27.4474 103.867 27.8699C103.073 28.2924 102.152 28.5036 101.104 28.5036C99.921 28.5036 98.8395 28.1994 97.8594 27.5911C96.8793 26.9827 96.102 26.1293 95.5274 25.0309C94.9698 23.9156 94.6909 22.6398 94.6909 21.2034ZM105.743 21.2541C105.743 20.3923 105.574 19.6572 105.236 19.0488C104.898 18.4236 104.441 17.9504 103.867 17.6294C103.292 17.2914 102.676 17.1224 102.016 17.1224C101.357 17.1224 100.749 17.2829 100.191 17.604C99.6338 17.9251 99.1775 18.3983 98.8226 19.0235C98.4847 19.6318 98.3157 20.3585 98.3157 21.2034C98.3157 22.0483 98.4847 22.7919 98.8226 23.434C99.1775 24.0593 99.6338 24.5409 100.191 24.8788C100.766 25.2168 101.374 25.3858 102.016 25.3858C102.676 25.3858 103.292 25.2253 103.867 24.9042C104.441 24.5662 104.898 24.0931 105.236 23.4847C105.574 22.8595 105.743 22.1159 105.743 21.2541Z" fill="#242424"/>
<path d="M119.018 28.5036C117.666 28.5036 116.45 28.2079 115.368 27.6164C114.287 27.0081 113.433 26.1547 112.808 25.0563C112.2 23.9579 111.895 22.6905 111.895 21.2541C111.895 19.8177 112.208 18.5503 112.833 17.4519C113.475 16.3535 114.346 15.5086 115.444 14.9172C116.542 14.3088 117.768 14.0046 119.12 14.0046C120.471 14.0046 121.697 14.3088 122.795 14.9172C123.893 15.5086 124.755 16.3535 125.38 17.4519C126.023 18.5503 126.344 19.8177 126.344 21.2541C126.344 22.6905 126.014 23.9579 125.355 25.0563C124.713 26.1547 123.834 27.0081 122.719 27.6164C121.62 28.2079 120.387 28.5036 119.018 28.5036ZM119.018 25.4112C119.66 25.4112 120.26 25.2591 120.818 24.9549C121.392 24.6338 121.849 24.1607 122.187 23.5354C122.525 22.9102 122.694 22.1497 122.694 21.2541C122.694 19.9191 122.339 18.8968 121.629 18.187C120.936 17.4604 120.083 17.0971 119.069 17.0971C118.055 17.0971 117.202 17.4604 116.509 18.187C115.833 18.8968 115.495 19.9191 115.495 21.2541C115.495 22.5891 115.824 23.6199 116.483 24.3465C117.159 25.0563 118.004 25.4112 119.018 25.4112Z" fill="#242424"/>
<path d="M128.034 21.2541C128.034 19.8008 128.33 18.5334 128.921 17.4519C129.513 16.3535 130.332 15.5086 131.38 14.9172C132.428 14.3088 133.628 14.0046 134.98 14.0046C136.72 14.0046 138.156 14.444 139.289 15.3227C140.438 16.1845 141.207 17.4012 141.595 18.9728H137.768C137.565 18.3645 137.219 17.8913 136.729 17.5533C136.255 17.1985 135.664 17.021 134.954 17.021C133.94 17.021 133.138 17.3928 132.546 18.1363C131.955 18.863 131.659 19.9022 131.659 21.2541C131.659 22.5891 131.955 23.6284 132.546 24.3719C133.138 25.0985 133.94 25.4619 134.954 25.4619C136.391 25.4619 137.328 24.8197 137.768 23.5354H141.595C141.207 25.0563 140.438 26.2645 139.289 27.1602C138.14 28.0558 136.703 28.5036 134.98 28.5036C133.628 28.5036 132.428 28.2079 131.38 27.6164C130.332 27.0081 129.513 26.1631 128.921 25.0816C128.33 23.9832 128.034 22.7074 128.034 21.2541Z" fill="#242424"/>
<defs>
<clipPath id="clip0_200_15679">
<rect width="38.0217" height="38.0217" fill="white"/>
</clipPath>
</defs>
</svg>
