<svg width="24" height="24" viewBox="0 0 24 24" fill="none" xmlns="http://www.w3.org/2000/svg">
<path d="M24 12C24 5.37188 18.6281 0 12 0C5.37188 0 0 5.37188 0 12C0 17.9902 4.38563 22.9547 10.1259 23.8552V15.4716H7.08141V12H10.1259V9.35672C10.1259 6.35156 11.9142 4.68844 14.6564 4.68844C15.9713 4.68844 17.3456 4.92516 17.3456 4.92516V7.87734H15.8334C14.3409 7.87734 13.8806 8.80453 13.8806 9.75141V12H17.2078L16.6753 15.4716H13.8806V23.8552C19.6144 22.9547 24 17.9902 24 12Z" fill="#1877F2"/>
<path d="M16.6683 15.4715L17.2013 12H13.8741V9.75138C13.8741 8.80451 14.3409 7.87732 15.8269 7.87732H17.3391V4.92513C17.3391 4.92513 15.9647 4.68842 14.6498 4.68842C11.9081 4.68842 10.1194 6.35201 10.1194 9.3567V12H7.07484V15.4715H10.1194V23.8551C10.7311 23.9536 11.3555 24 11.9934 24C12.6314 24 13.2558 23.9475 13.8675 23.8551V15.4715H16.6683Z" fill="white"/>
</svg>
