<svg width="24" height="24" viewBox="0 0 24 24" fill="none" xmlns="http://www.w3.org/2000/svg">
<path d="M24 12.2317C24 11.2479 23.9183 10.5299 23.7415 9.7854H12.2449V14.226H18.9931C18.8571 15.3295 18.1224 16.9914 16.4897 18.1081L16.4669 18.2568L20.1019 21.0086L20.3537 21.0332C22.6666 18.9458 24 15.8746 24 12.2317Z" fill="#4285F4"/>
<path d="M12.245 23.9314C15.551 23.9314 18.3265 22.8678 20.3538 21.0331L16.4898 18.1081C15.4558 18.8127 14.068 19.3046 12.245 19.3046C9.00688 19.3046 6.25861 17.2173 5.27892 14.3323L5.13532 14.3442L1.35558 17.2027L1.30615 17.3369C3.31974 21.2457 7.4558 23.9314 12.245 23.9314Z" fill="#34A853"/>
<path d="M5.27886 14.3325C5.02036 13.5879 4.87076 12.7902 4.87076 11.9659C4.87076 11.1416 5.02036 10.3439 5.26526 9.59934L5.25841 9.44078L1.43131 6.53638L1.30609 6.59458C0.476196 8.21662 0 10.0381 0 11.9659C0 13.8937 0.476196 15.7151 1.30609 17.3371L5.27886 14.3325Z" fill="#FBBC05"/>
<path d="M12.245 4.62671C14.5442 4.62671 16.0952 5.59726 16.9796 6.40833L20.4354 3.11109C18.313 1.18328 15.551 0 12.245 0C7.4558 0 3.31974 2.68562 1.30615 6.59439L5.26532 9.59915C6.25861 6.71409 9.00689 4.62671 12.245 4.62671Z" fill="#EB4335"/>
</svg>
