<svg width="21" height="19" viewBox="0 0 21 19" fill="none" xmlns="http://www.w3.org/2000/svg">
<path d="M16.23 7.79999C15.81 8.20999 15.57 8.79999 15.63 9.42999C15.72 10.51 16.71 11.3 17.79 11.3H19.75V12.75C19.75 15.75 17.75 17.75 14.75 17.75H5.75C2.75 17.75 0.75 15.75 0.75 12.75V5.75C0.75 3.03 2.39 1.13 4.94 0.809998C5.2 0.769998 5.47 0.75 5.75 0.75H14.75C15.01 0.75 15.26 0.759988 15.5 0.799988C18.08 1.09999 19.75 3.01 19.75 5.75V7.20001H17.67C17.11 7.20001 16.6 7.41999 16.23 7.79999Z" stroke="#247CFF" stroke-width="1.5" stroke-linecap="round" stroke-linejoin="round"/>
</svg>
