<svg width="19" height="19" viewBox="0 0 19 19" fill="none" xmlns="http://www.w3.org/2000/svg">
<path d="M15.4671 8.16885L13.6474 9.92248C13.3976 10.1629 13.2279 10.6437 13.2797 10.9879L13.5626 13.0432C13.7464 14.3584 12.9309 14.9288 11.7524 14.316L9.75363 13.2694C9.41894 13.095 8.87211 13.1045 8.54684 13.2977L6.79793 14.3207C5.41671 15.1268 4.59175 14.5187 4.95945 12.963L5.47328 10.7899C5.56756 10.3939 5.39314 9.85177 5.09616 9.58307L3.44153 8.08871C2.2583 7.01862 2.58828 6.04753 4.18163 5.92497L6.19924 5.77412C6.57637 5.74583 7.03363 5.44885 7.20805 5.11415L8.25457 3.10597C8.87211 1.93217 9.86677 1.93688 10.4655 3.12011L11.3988 4.96802C11.5591 5.27914 11.9645 5.58084 12.3086 5.6327L14.8071 6.0381C16.1553 6.26438 16.4523 7.22133 15.4671 8.16885Z" fill="#FFD600"/>
</svg>
